<svg width="292" height="49" viewBox="0 0 292 49" fill="none" xmlns="http://www.w3.org/2000/svg">
<g clip-path="url(#clip0)">
<path d="M28.6162 26.6875L46.4287 32.9688V41.7188L19.5225 30.3125V22.9375L46.4287 11.5312V20.2812L28.6162 26.6875ZM223.478 49.9062H216.759L233.509 0.5H240.228L223.478 49.9062ZM263.009 26.5938L244.853 20.25V11.5625L272.071 22.9688V30.3125L244.853 41.75V33.0312L263.009 26.5938Z" fill="#3F51B5"/>
<path d="M73.6396 38.6758H60.7979L58.3564 46H50.5684L63.8008 10.4531H70.5879L83.8936 46H76.1055L73.6396 38.6758ZM62.7754 32.7432H71.6621L67.1943 19.4375L62.7754 32.7432ZM91.4854 17.5625L98.79 38.1875L106.056 17.5625H113.751V46H107.872V38.2266L108.458 24.8086L100.782 46H96.7588L89.1025 24.8281L89.6885 38.2266V46H83.8291V17.5625H91.4854ZM140.028 32.4258C140.028 35.2253 139.533 37.6797 138.543 39.7891C137.554 41.8984 136.134 43.526 134.285 44.6719C132.449 45.8177 130.34 46.3906 127.957 46.3906C125.6 46.3906 123.498 45.8242 121.649 44.6914C119.8 43.5586 118.367 41.944 117.352 39.8477C116.336 37.7383 115.822 35.3164 115.809 32.582V31.1758C115.809 28.3763 116.31 25.9154 117.313 23.793C118.328 21.6576 119.754 20.0234 121.59 18.8906C123.439 17.7448 125.548 17.1719 127.918 17.1719C130.288 17.1719 132.391 17.7448 134.227 18.8906C136.076 20.0234 137.502 21.6576 138.504 23.793C139.52 25.9154 140.028 28.3698 140.028 31.1562V32.4258ZM134.09 31.1367C134.09 28.1549 133.556 25.8893 132.488 24.3398C131.421 22.7904 129.897 22.0156 127.918 22.0156C125.952 22.0156 124.435 22.7839 123.367 24.3203C122.3 25.8438 121.759 28.0833 121.746 31.0391V32.4258C121.746 35.3294 122.28 37.582 123.348 39.1836C124.416 40.7852 125.952 41.5859 127.957 41.5859C129.923 41.5859 131.434 40.8177 132.488 39.2812C133.543 37.7318 134.077 35.4792 134.09 32.5234V31.1367ZM152.613 35.5898H147.945V46H142.085V17.5625H152.652C156.011 17.5625 158.602 18.3112 160.425 19.8086C162.248 21.306 163.16 23.4219 163.16 26.1562C163.16 28.0964 162.736 29.7174 161.89 31.0195C161.057 32.3086 159.787 33.3372 158.081 34.1055L164.234 45.7266V46H157.945L152.613 35.5898ZM147.945 30.8438H152.671C154.143 30.8438 155.282 30.4727 156.089 29.7305C156.897 28.9753 157.3 27.9401 157.3 26.625C157.3 25.2839 156.916 24.2292 156.148 23.4609C155.393 22.6927 154.227 22.3086 152.652 22.3086H147.945V30.8438ZM171.663 46H165.803V17.5625H171.663V46ZM182.568 17.5625L189.873 38.1875L197.138 17.5625H204.834V46H198.955V38.2266L199.541 24.8086L191.865 46H187.842L180.185 24.8281L180.771 38.2266V46H174.912V17.5625H182.568Z" fill="#333"/>
</g>
<defs>
<clipPath id="clip0">
<rect width="292" height="49" fill="white"/>
</clipPath>
</defs>
</svg>
